<svg xmlns="http://www.w3.org/2000/svg" viewBox="0 0 512 512" role="img" aria-labelledby="title desc">
  <title id="title">ゆるたすく</title>
  <desc id="desc">淡い空と白い旗を描いた、ゆるたすくのアイコン</desc>
  <rect width="512" height="512" rx="96" fill="#a8daf6"/>
  <path d="M0 222c34-20 71-18 108 5 23 15 54 5 76 18 20 12 13 31-5 40-37 18-82 2-120 3-26 1-43 10-59 22z" fill="#e8f6fd" opacity=".86"/>
  <path d="M392 268c24-19 53-20 83-5 14 7 26 2 37 2v74c-26 3-54 6-78-3-21-8-38-4-55-2-27 4-42-13-33-34 7-17 28-18 46-32z" fill="#e8f6fd" opacity=".86"/>
  <path d="M280 374c45-18 76-6 116-20 24-9 71-18 92 1 22 20-27 41-56 39-65-4-95 4-152 0-31-2-33-8 0-20z" fill="#d7eef9" opacity=".78"/>
  <path d="M0 407c39-30 73-43 104-32 27 9 30 34 48 45 25 15 43-9 72-1 34 9 52 37 75 54H0z" fill="#85afc9" opacity=".88"/>
  <path d="M365 459c34-45 71-68 111-45 13 8 24 20 36 32v66H340c5-19 13-36 25-53z" fill="#7fa9c4" opacity=".9"/>
  <path d="M0 455c93-27 178-44 262-43 91 1 173 22 250 67v33H0z" fill="#94bed4"/>
  <circle cx="366" cy="96" r="36" fill="#fff0a8"/>
  <path d="M366 60a36 36 0 1 0 30 56 45 45 0 0 1-52-51 36 36 0 0 1 22-5z" fill="#fff0a8"/>
  <circle cx="186" cy="98" r="7" fill="#ffffff"/>
  <circle cx="294" cy="140" r="8" fill="#72a9ca"/>
  <path d="M206 181v243" fill="none" stroke="#ffffff" stroke-width="19" stroke-linecap="round"/>
  <circle cx="206" cy="181" r="18" fill="#ffffff"/>
  <path d="M224 203c55-23 91 15 141 8 19-3 29-11 35-5 8 8-16 43-2 61 10 14 34 18 26 31-17 26-72 43-123 25-29-11-51-5-77 5z" fill="#ffffff"/>
  <ellipse cx="206" cy="424" rx="40" ry="8" fill="#6d9fbd" opacity=".48"/>
</svg>
